HIERARCHY
ROOT hip
{
  OFFSET -117.003 82.1945 -55.5146
  CHANNELS 6 Xposition Yposition Zposition Zrotation Xrotation Yrotation
  JOINT abdomen
  {
    OFFSET 0 20.6881 -0.73152
    CHANNELS 3 Zrotation Xrotation Yrotation
    JOINT chest
    {
      OFFSET 0 11.7043 -0.48768
      CHANNELS 3 Zrotation Xrotation Yrotation
      JOINT neck
      {
        OFFSET 0 22.1894 -2.19456
        CHANNELS 3 Zrotation Xrotation Yrotation
        JOINT head
        {
          OFFSET -0.24384 7.07133 1.2192
          CHANNELS 3 Zrotation Xrotation Yrotation
          JOINT leftEye
          {
            OFFSET 4.14528 8.04674 8.04672
            CHANNELS 3 Zrotation Xrotation Yrotation
            End Site
            {
              OFFSET 1 0 0
            }
          }
          JOINT rightEye
          {
            OFFSET -3.6576 8.04674 8.04672
            CHANNELS 3 Zrotation Xrotation Yrotation
            End Site
            {
              OFFSET 1 0 0
            }
          }
        }
      }
      JOINT rCollar
      {
        OFFSET -2.68224 19.2634 -4.8768
        CHANNELS 3 Zrotation Xrotation Yrotation
        JOINT rShldr
        {
          OFFSET -8.77824 -1.95073 1.46304
          CHANNELS 3 Zrotation Xrotation Yrotation
          JOINT rForeArm
          {
            OFFSET -28.1742 -1.7115 0.48768
            CHANNELS 3 Zrotation Xrotation Yrotation
            JOINT rHand
            {
              OFFSET -22.5879 0.773209 7.07136
              CHANNELS 3 Zrotation Xrotation Yrotation
              JOINT rThumb1
              {
                OFFSET -1.2192 -0.487915 3.41376
                CHANNELS 3 Zrotation Xrotation Yrotation
                JOINT rThumb2
                {
                  OFFSET -3.37035 -0.52449 3.41376
                  CHANNELS 3 Zrotation Xrotation Yrotation
                  End Site
                  {
                    OFFSET -1.78271 -1.18214 1.43049
                  }
                }
              }
              JOINT rIndex1
              {
                OFFSET -7.75947 0.938293 5.60832
                CHANNELS 3 Zrotation Xrotation Yrotation
                JOINT rIndex2
                {
                  OFFSET -2.54057 -0.884171 1.56538
                  CHANNELS 3 Zrotation Xrotation Yrotation
                  End Site
                  {
                    OFFSET -1.62519 -0.234802 1.16502
                  }
                }
              }
              JOINT rMid1
              {
                OFFSET -8.24714 1.18213 3.41376
                CHANNELS 3 Zrotation Xrotation Yrotation
                JOINT rMid2
                {
                  OFFSET -3.10165 -0.590103 1.0647
                  CHANNELS 3 Zrotation Xrotation Yrotation
                  End Site
                  {
                    OFFSET -2.48547 -0.328903 0.83742
                  }
                }
              }
              JOINT rRing1
              {
                OFFSET -8.82822 0.546677 1.51678
                CHANNELS 3 Zrotation Xrotation Yrotation
                JOINT rRing2
                {
                  OFFSET -2.60934 -0.819778 -0.0198488
                  CHANNELS 3 Zrotation Xrotation Yrotation
                  End Site
                  {
                    OFFSET -2.33842 -0.294052 0.168128
                  }
                }
              }
              JOINT rPinky1
              {
                OFFSET -8.27202 -0.0477905 -0.4584
                CHANNELS 3 Zrotation Xrotation Yrotation
                JOINT rPinky2
                {
                  OFFSET -1.82734 -0.647385 -0.700984
                  CHANNELS 3 Zrotation Xrotation Yrotation
                  End Site
                  {
                    OFFSET -1.69225 -0.51767 -0.607171
                  }
                }
              }
            }
          }
        }
      }
      JOINT lCollar
      {
        OFFSET 2.68224 19.2634 -4.8768
        CHANNELS 3 Zrotation Xrotation Yrotation
        JOINT lShldr
        {
          OFFSET 8.77824 -1.95073 1.46304
          CHANNELS 3 Zrotation Xrotation Yrotation
          JOINT lForeArm
          {
            OFFSET 28.1742 -1.7115 0.48768
            CHANNELS 3 Zrotation Xrotation Yrotation
            JOINT lHand
            {
              OFFSET 22.5879 0.773209 7.07136
              CHANNELS 3 Zrotation Xrotation Yrotation
              JOINT lThumb1
              {
                OFFSET 1.2192 -0.487915 3.41376
                CHANNELS 3 Zrotation Xrotation Yrotation
                JOINT lThumb2
                {
                  OFFSET 3.37035 -0.52449 3.41376
                  CHANNELS 3 Zrotation Xrotation Yrotation
                  End Site
                  {
                    OFFSET 1.78271 -1.18214 1.43049
                  }
                }
              }
              JOINT lIndex1
              {
                OFFSET 7.75947 0.938293 5.60832
                CHANNELS 3 Zrotation Xrotation Yrotation
                JOINT lIndex2
                {
                  OFFSET 2.54057 -0.884171 1.56538
                  CHANNELS 3 Zrotation Xrotation Yrotation
                  End Site
                  {
                    OFFSET 1.62519 -0.234802 1.16502
                  }
                }
              }
              JOINT lMid1
              {
                OFFSET 8.24714 1.18213 3.41376
                CHANNELS 3 Zrotation Xrotation Yrotation
                JOINT lMid2
                {
                  OFFSET 3.10165 -0.590103 1.0647
                  CHANNELS 3 Zrotation Xrotation Yrotation
                  End Site
                  {
                    OFFSET 2.48547 -0.328903 0.83742
                  }
                }
              }
              JOINT lRing1
              {
                OFFSET 8.82822 0.546677 1.51678
                CHANNELS 3 Zrotation Xrotation Yrotation
                JOINT lRing2
                {
                  OFFSET 2.60934 -0.819778 -0.0198488
                  CHANNELS 3 Zrotation Xrotation Yrotation
                  End Site
                  {
                    OFFSET 2.33842 -0.294052 0.168128
                  }
                }
              }
              JOINT lPinky1
              {
                OFFSET 8.27202 -0.0477905 -0.4584
                CHANNELS 3 Zrotation Xrotation Yrotation
                JOINT lPinky2
                {
                  OFFSET 1.82734 -0.647385 -0.700984
                  CHANNELS 3 Zrotation Xrotation Yrotation
                  End Site
                  {
                    OFFSET 1.69225 -0.51767 -0.607171
                  }
                }
              }
            }
          }
        }
      }
    }
  }
  JOINT rButtock
  {
    OFFSET -8.77824 4.35084 1.2192
    CHANNELS 3 Zrotation Xrotation Yrotation
    JOINT rThigh
    {
      OFFSET 0 -1.70687 -2.19456
      CHANNELS 3 Zrotation Xrotation Yrotation
      JOINT rShin
      {
        OFFSET 0 -36.8199 0.73152
        CHANNELS 3 Zrotation Xrotation Yrotation
        JOINT rFoot
        {
          OFFSET 0.73152 -45.1104 -5.12064
          CHANNELS 3 Zrotation Xrotation Yrotation
          End Site
          {
            OFFSET -1.1221 -3.69964 12.103
          }
        }
      }
    }
  }
  JOINT lButtock
  {
    OFFSET 8.77824 4.35084 1.2192
    CHANNELS 3 Zrotation Xrotation Yrotation
    JOINT lThigh
    {
      OFFSET 0 -1.70687 -2.19456
      CHANNELS 3 Zrotation Xrotation Yrotation
      JOINT lShin
      {
        OFFSET 0 -36.8199 0.73152
        CHANNELS 3 Zrotation Xrotation Yrotation
        JOINT lFoot
        {
          OFFSET -0.73152 -45.1104 -5.12064
          CHANNELS 3 Zrotation Xrotation Yrotation
          End Site
          {
            OFFSET 1.1221 -3.69964 12.103
          }
        }
      }
    }
  }
}
MOTION
Frames:	6
Frame Time:	0.00833333
-81.5676 102.166 -6.78656 -165.155 13.4114 -161.599 0.0416922 7.2926 8.25331 -4.06608 -7.15597 1.77271 6.3955 13.2208 9.85442 24.6592 -12.1666 20.1483 -0 0 0 -0 0 0 1.7175e-013 2.05468e-013 -5.31205e-014 -4.25844 -62.099 45.9784 -22.845 -17.0808 46.1398 -0.904606 -25.9581 -3.92321 1.12228e-009 5.45685e-010 -1.06302e-009 1.95989e-009 9.33798e-010 -1.81535e-009 1.12229e-009 5.45687e-010 -1.06303e-009 7.73091 5.47488 0.417314 1.12228e-009 5.45686e-010 -1.06302e-009 2.90554 0.965183 0.102902 1.12229e-009 5.45686e-010 -1.06302e-009 10.2786 0.731801 0.0259123 1.12228e-009 5.45688e-010 -1.06301e-009 2.22167 -0.733487 -0.20892 1.71583e-013 2.05444e-013 -5.33512e-014 -62.8313 -59.4649 -88.5908 26.8293 -25.7842 -60.5368 0.181145 12.0405 -1.71778 -1.28913e-009 -4.95703e-010 1.47524e-010 -2.22476e-009 -8.4142e-010 2.66583e-010 -1.28913e-009 -4.95699e-010 1.47527e-010 -7.73091 5.47488 -0.417314 -1.28913e-009 -4.95701e-010 1.47521e-010 -2.90554 0.965183 -0.102902 -1.28914e-009 -4.95703e-010 1.47521e-010 -10.2786 0.731801 -0.0259123 -1.28912e-009 -4.95703e-010 1.47517e-010 -2.22167 -0.733487 0.20892 -2.03217e-016 0 -3.88251e-019 -31.8388 -13.4122 -9.74784 0.158575 13.5969 1.54729 -3.38318 -37.5777 -11.3363 2.03217e-016 0 3.88251e-019 126.027 -26.6051 121.023 177.055 51.9228 -177.096 25.345 64.2967 -29.2808 
-81.7545 102.078 -7.29098 -165.423 14.0241 -162.026 0.032102 8.21986 8.06486 -4.13826 -7.30937 1.67411 6.24831 13.2881 9.83194 24.8317 -13.2061 20.4969 -0 0 0 -0 0 0 2.63155e-014 1.60624e-013 -1.46156e-013 -4.26203 -62.5024 45.9403 -22.8144 -17.031 46.0515 -0.895278 -25.8359 -3.90193 7.05094e-010 1.49548e-009 -1.82442e-009 1.25857e-009 2.58189e-009 -3.14372e-009 7.05098e-010 1.49549e-009 -1.82444e-009 7.73091 5.47488 0.417314 7.05094e-010 1.49548e-009 -1.82443e-009 2.90554 0.965183 0.102902 7.051e-010 1.49548e-009 -1.82443e-009 10.2786 0.731801 0.0259123 7.0509e-010 1.49549e-009 -1.82442e-009 2.22167 -0.733487 -0.20892 2.61655e-014 1.60611e-013 -1.46405e-013 -62.8944 -59.4433 -88.7348 26.8236 -25.7661 -60.5074 0.17286 11.766 -1.67749 -4.07827e-010 -2.0398e-009 -1.10971e-009 -7.14623e-010 -3.52319e-009 -1.91413e-009 -4.07825e-010 -2.0398e-009 -1.10971e-009 -7.73091 5.47488 -0.417314 -4.07823e-010 -2.0398e-009 -1.10971e-009 -2.90554 0.965183 -0.102902 -4.07831e-010 -2.0398e-009 -1.10971e-009 -10.2786 0.731801 -0.0259123 -4.07818e-010 -2.0398e-009 -1.10971e-009 -2.22167 -0.733487 0.20892 -2.03217e-016 0 -3.88251e-019 -31.3824 -12.9466 -9.94538 0.169605 13.3179 1.63248 -3.73679 -37.2354 -11.7921 2.03217e-016 0 3.88251e-019 127.041 -26.7822 122.815 177.057 51.9152 -177.095 26.7521 61.3866 -31.9902 
-81.9714 101.712 -7.55589 -165.659 14.673 -162.557 -0.100005 9.19533 7.81169 -4.33309 -7.37835 1.56112 6.08759 13.4299 9.78461 24.9612 -14.5583 20.9131 -0 0 0 -0 0 0 -1.07333e-014 1.46368e-013 -2.21572e-013 -4.24844 -62.9233 45.9027 -22.7739 -16.965 45.9362 -0.884747 -25.6965 -3.87772 7.19041e-010 1.78635e-009 -2.10438e-009 1.28948e-009 3.08426e-009 -3.62819e-009 7.19045e-010 1.78635e-009 -2.10439e-009 7.73091 5.47488 0.417314 7.19041e-010 1.78635e-009 -2.10439e-009 2.90554 0.965183 0.102902 7.19048e-010 1.78635e-009 -2.10438e-009 10.2786 0.731801 0.0259123 7.19038e-010 1.78635e-009 -2.10438e-009 2.22167 -0.733487 -0.20892 -1.08604e-014 1.46366e-013 -2.21805e-013 -62.9762 -59.3878 -88.9539 26.8089 -25.7198 -60.4333 0.16536 11.5103 -1.64002 -2.54648e-010 -2.52065e-009 -1.33862e-009 -4.53018e-010 -4.35792e-009 -2.31137e-009 -2.54648e-010 -2.52065e-009 -1.33862e-009 -7.73091 5.47488 -0.417314 -2.54645e-010 -2.52065e-009 -1.33862e-009 -2.90554 0.965183 -0.102902 -2.54654e-010 -2.52065e-009 -1.33862e-009 -10.2786 0.731801 -0.0259123 -2.5464e-010 -2.52065e-009 -1.33862e-009 -2.22167 -0.733487 0.20892 -2.03217e-016 0 -3.88251e-019 -30.215 -12.4132 -10.1575 0.175455 12.8161 1.67987 -5.22676 -35.0568 -14.6073 2.03217e-016 0 3.88251e-019 128.513 -27.2604 125.014 177.06 52.0155 -177.103 26.6521 53.5345 -35.6107 
-82.2216 101.312 -7.59032 -165.872 15.3609 -163.175 -0.315074 10.2252 7.50571 -4.61299 -7.39457 1.43517 5.91304 13.6273 9.71787 25.0857 -16.1575 21.3998 -0 0 0 -0 0 0 1.09081e-014 1.47988e-013 -2.86772e-013 -4.19123 -63.3708 45.8948 -22.7241 -16.884 45.7962 -0.872559 -25.533 -3.84941 9.9128e-010 1.69269e-009 -2.10922e-009 1.75939e-009 2.91796e-009 -3.63017e-009 9.91283e-010 1.6927e-009 -2.10922e-009 7.73091 5.47488 0.417314 9.91279e-010 1.69269e-009 -2.10922e-009 2.90554 0.965183 0.102902 9.91286e-010 1.6927e-009 -2.10921e-009 10.2786 0.731801 0.0259123 9.91276e-010 1.6927e-009 -2.10921e-009 2.22167 -0.733487 -0.20892 1.08097e-014 1.48001e-013 -2.86971e-013 -63.0586 -59.3102 -89.2166 26.7878 -25.6537 -60.3286 0.15811 11.2551 -1.6027 -5.35088e-010 -2.38746e-009 -9.67306e-010 -9.35102e-010 -4.12586e-009 -1.66749e-009 -5.3509e-010 -2.38746e-009 -9.67302e-010 -7.73091 5.47488 -0.417314 -5.35085e-010 -2.38746e-009 -9.67305e-010 -2.90554 0.965183 -0.102902 -5.35094e-010 -2.38746e-009 -9.67307e-010 -10.2786 0.731801 -0.0259123 -5.3508e-010 -2.38746e-009 -9.6731e-010 -2.22167 -0.733487 0.20892 -2.03217e-016 0 -3.88251e-019 -28.5209 -11.7645 -10.3783 0.178462 12.1454 1.70563 -7.04736 -31.5303 -18.8424 2.03217e-016 0 3.88251e-019 130.36 -27.889 127.59 177.065 52.1767 -177.118 24.0517 42.443 -39.6392 
-82.4656 100.928 -7.42152 -166.082 16.0642 -163.832 -0.549538 11.2517 7.17853 -4.91928 -7.4044 1.30857 5.68852 13.8577 9.61679 25.279 -17.9982 21.9299 -0 0 0 -0 0 0 3.01537e-014 1.43199e-013 -3.05928e-013 -4.05079 -63.8038 45.9622 -22.661 -16.7824 45.6182 -0.858401 -25.3418 -3.8164 1.25538e-009 1.34525e-009 -1.89686e-009 2.2099e-009 2.31266e-009 -3.2563e-009 1.25538e-009 1.34525e-009 -1.89686e-009 7.73091 5.47488 0.417314 1.25538e-009 1.34525e-009 -1.89686e-009 2.90554 0.965183 0.102902 1.25538e-009 1.34525e-009 -1.89685e-009 10.2786 0.731801 0.0259123 1.25537e-009 1.34525e-009 -1.89685e-009 2.22167 -0.733487 -0.20892 3.00799e-014 1.43224e-013 -3.06093e-013 -62.9807 -59.2243 -89.3607 26.7612 -25.571 -60.197 0.150243 10.9752 -1.56184 -9.19047e-010 -1.93693e-009 -4.57678e-010 -1.59428e-009 -3.34287e-009 -7.83391e-010 -9.19052e-010 -1.93692e-009 -4.5767e-010 -7.73091 5.47488 -0.417314 -9.19045e-010 -1.93692e-009 -4.57674e-010 -2.90554 0.965183 -0.102902 -9.19055e-010 -1.93692e-009 -4.57679e-010 -10.2786 0.731801 -0.0259123 -9.1904e-010 -1.93692e-009 -4.57681e-010 -2.22167 -0.733487 0.20892 -2.03217e-016 0 -3.88251e-019 -26.6849 -10.9466 -10.5889 0.180045 11.3431 1.70345 -8.23265 -27.8596 -22.6535 2.03217e-016 0 3.88251e-019 132.358 -28.5038 130.269 177.07 52.4315 -177.158 18.7933 31.3805 -42.7377 
-82.6718 100.646 -7.17786 -166.307 16.7584 -164.48 -0.743373 12.2167 6.86184 -5.19366 -7.45424 1.19356 5.3781 14.0983 9.46634 25.6123 -20.0765 22.4777 -0 0 0 -0 0 0 -1.40826e-014 1.09713e-013 -2.43213e-013 -3.78522 -64.1807 46.1519 -22.5806 -16.6546 45.389 -0.841995 -25.1193 -3.77807 1.24491e-009 8.74732e-010 -1.52524e-009 2.18262e-009 1.49804e-009 -2.61325e-009 1.24491e-009 8.74734e-010 -1.52524e-009 7.73091 5.47488 0.417314 1.24491e-009 8.74735e-010 -1.52524e-009 2.90554 0.965183 0.102902 1.24491e-009 8.74735e-010 -1.52524e-009 10.2786 0.731801 0.0259123 1.2449e-009 8.74737e-010 -1.52524e-009 2.22167 -0.733487 -0.20892 -1.41459e-014 1.09745e-013 -2.43362e-013 -62.5833 -59.1442 -89.2265 26.7299 -25.4746 -60.0417 0.141043 10.6455 -1.51377 -1.07643e-009 -1.46572e-009 -2.71642e-010 -1.86395e-009 -2.52483e-009 -4.59948e-010 -1.07644e-009 -1.46572e-009 -2.71632e-010 -7.73091 5.47488 -0.417314 -1.07643e-009 -1.46572e-009 -2.71635e-010 -2.90554 0.965183 -0.102902 -1.07644e-009 -1.46572e-009 -2.71642e-010 -10.2786 0.731801 -0.0259123 -1.07642e-009 -1.46571e-009 -2.71645e-010 -2.22167 -0.733487 0.20892 -2.03217e-016 0 -3.88251e-019 -25.0919 -9.90543 -10.7712 0.180871 10.4462 1.66707 -8.56128 -25.2895 -24.5333 2.03217e-016 0 3.88251e-019 134.259 -28.9747 132.747 177.072 52.8126 -177.237 12.4918 22.9169 -43.5723 
